<?xml version="1.0" standalone="no"?>
<!DOCTYPE svg PUBLIC "-//W3C//DTD SVG 20010904//EN"
 "http://www.w3.org/TR/2001/REC-SVG-20010904/DTD/svg10.dtd">
<svg version="1.0" xmlns="http://www.w3.org/2000/svg"
 width="512.000000pt" height="512.000000pt" viewBox="0 0 512.000000 512.000000"
 preserveAspectRatio="xMidYMid meet">
<metadata>
Created by potrace 1.14, written by Peter Selinger 2001-2017
</metadata>
<g transform="translate(0.000000,512.000000) scale(0.100000,-0.100000)"
fill="#000000" stroke="none">
<path d="M2478 5015 c-2 -2 -49 -5 -105 -9 -499 -31 -996 -260 -1369 -631
-231 -230 -410 -509 -514 -801 -18 -49 -33 -93 -34 -99 -2 -5 -10 -35 -20 -65
-77 -250 -101 -607 -61 -908 8 -64 44 -235 59 -287 l13 -41 -56 -29 c-121 -63
-222 -198 -249 -334 -8 -45 -9 -1276 0 -1314 47 -201 205 -353 398 -384 52 -9
3987 -8 4045 1 28 4 83 22 124 42 90 42 186 135 225 217 53 113 55 133 54 782
0 649 -1 670 -54 780 -36 75 -140 181 -210 214 l-51 23 14 47 c23 76 61 280
70 371 10 109 10 331 0 440 -22 234 -102 512 -216 745 -257 525 -675 901
-1231 1108 -212 79 -457 124 -704 131 -69 1 -127 2 -128 1z"/>
</g>
</svg>
